<?xml version="1.0" standalone="no"?>
<!DOCTYPE svg PUBLIC "-//W3C//DTD SVG 20010904//EN"
 "http://www.w3.org/TR/2001/REC-SVG-20010904/DTD/svg10.dtd">
<svg version="1.0" xmlns="http://www.w3.org/2000/svg"
 width="16.000000pt" height="16.000000pt" viewBox="0 0 16.000000 16.000000"
 preserveAspectRatio="xMidYMid meet">
<metadata>
Created by potrace 1.11, written by Peter Selinger 2001-2013
</metadata>
<g transform="translate(0.000000,16.000000) scale(0.006154,-0.006154)"
fill="#000000" stroke="none">
<path d="M0 1300 l0 -1300 1300 0 1300 0 0 1300 0 1300 -1300 0 -1300 0 0
-1300z m1484 1222 c60 -33 94 -78 137 -180 78 -187 46 -315 -149 -587 -94
-131 -128 -163 -190 -181 -115 -34 -225 34 -301 186 -90 180 -76 309 55 512
103 160 203 258 286 279 49 12 105 2 162 -29z m-698 -316 c164 -76 161 -263
-9 -589 -61 -117 -130 -188 -234 -239 -60 -29 -77 -33 -148 -33 -88 1 -144 20
-210 72 -84 66 -142 200 -129 293 13 89 129 284 221 372 67 63 126 93 238 124
111 31 205 31 271 0z m1466 -83 c26 -12 67 -42 91 -67 101 -103 83 -222 -59
-402 -106 -134 -261 -306 -294 -328 -116 -76 -261 -57 -366 49 -107 107 -151
260 -110 386 52 157 239 343 383 379 21 5 99 8 173 7 114 -2 142 -6 182 -24z
m-875 -678 c94 -42 180 -155 191 -250 3 -30 -5 -77 -29 -156 -24 -83 -33 -134
-33 -189 0 -91 18 -136 98 -242 92 -122 104 -177 65 -285 -28 -77 -144 -193
-239 -240 -163 -80 -307 -64 -615 67 -270 114 -376 211 -544 497 -170 288
-186 394 -84 531 13 18 43 42 66 55 38 20 56 22 212 23 187 1 230 12 356 82
30 17 110 50 179 72 230 76 277 80 377 35z m1061 -105 c50 -36 79 -89 98 -182
26 -124 -6 -207 -131 -348 -37 -41 -103 -118 -147 -172 -111 -135 -171 -178
-251 -178 -116 0 -200 65 -279 216 -52 100 -69 170 -57 242 18 118 74 172 227
223 124 41 174 66 257 130 144 110 206 125 283 69z"/>
</g>
</svg>
